<svg xmlns="http://www.w3.org/2000/svg">
    <symbol id="lightbulb" viewBox="0 0 32 32">
        <path d="M 16 4 C 11.042969 4 7 8.042969 7 13 C 7 14.917969 7.84375 16.90625 9 18.6875 C 9.859375 20.011719 10.886719 21.230469 12 22.15625 L 12 25 C 12 26.09375 12.90625 27 14 27 L 15 28 L 17 28 L 18 27 C 19.09375 27 20 26.09375 20 25 L 20 22.15625 C 21.113281 21.230469 22.140625 20.011719 23 18.6875 C 24.15625 16.90625 25 14.917969 25 13 C 25 8.042969 20.957031 4 16 4 Z M 16 6 C 19.878906 6 23 9.121094 23 13 C 23 14.308594 22.355469 16.035156 21.34375 17.59375 C 20.441406 18.984375 19.253906 20.222656 18.15625 21 L 13.84375 21 C 12.746094 20.222656 11.558594 18.984375 10.65625 17.59375 C 9.644531 16.035156 9 14.308594 9 13 C 9 9.121094 12.121094 6 16 6 Z M 14.25 23 L 17.75 23 C 17.828125 23.054688 17.910156 23.09375 18 23.125 L 18 25 L 14 25 L 14 23.125 C 14.089844 23.09375 14.171875 23.054688 14.25 23 Z"/>
    </symbol>
    <symbol id="seedling" viewBox="0 0 32 32">
        <path d="M 23.398438 14.023438 C 23.058594 14.042969 22.835938 13.933594 22.808594 13.914063 L 21.121094 14.992188 C 21.492188 15.574219 22.257813 15.96875 23.117188 16.019531 C 23.183594 16.023438 23.25 16.023438 23.316406 16.023438 C 24.445313 16.023438 25.554688 15.453125 26.394531 14.4375 C 27.828125 12.695313 28.835938 10.847656 28.878906 10.769531 L 29.332031 9.929688 L 28.515625 9.4375 C 23.984375 6.714844 21.394531 8.007813 20.492188 8.691406 C 19.328125 9.574219 18.796875 11.019531 19.089844 12.429688 C 18.160156 13.023438 17.234375 13.773438 16.496094 14.6875 C 16.070313 13.691406 15.40625 12.796875 14.632813 12.007813 C 14.703125 11.824219 14.75 11.644531 14.78125 11.511719 C 14.796875 11.441406 14.8125 11.375 14.832031 11.316406 C 15.34375 9.601563 14.640625 7.601563 13.082031 6.34375 C 11.972656 5.449219 8.820313 3.683594 3.519531 6.605469 L 2.835938 6.980469 L 3.03125 7.730469 C 3.070313 7.882813 4.015625 11.445313 5.894531 13.53125 C 6.707031 14.433594 7.726563 14.941406 8.847656 14.996094 C 8.917969 15 8.988281 15 9.054688 15 C 10.3125 15 11.390625 14.441406 11.828125 14.042969 L 10.484375 12.5625 C 10.46875 12.574219 8.789063 13.753906 7.382813 12.191406 C 6.292969 10.984375 5.550781 9.046875 5.199219 7.984375 C 8.984375 6.160156 11.078125 7.296875 11.824219 7.898438 C 12.699219 8.605469 13.132813 9.648438 12.953125 10.554688 C 10.800781 8.960938 8.558594 8.070313 8.378906 8.003906 L 7.65625 9.867188 C 9.699219 10.65625 15 13.484375 15 17 L 15 20.144531 C 14.238281 20.34375 13.542969 20.753906 13.019531 21.34375 C 12.550781 21.117188 12.035156 21 11.5 21 C 10.070313 21 8.839844 21.859375 8.296875 23.09375 C 8.035156 23.03125 7.769531 23 7.5 23 C 5.570313 23 4 24.570313 4 26.5 L 4 27 L 6 27 L 6 26.5 C 6 25.671875 6.671875 25 7.5 25 C 7.902344 25 8.210938 25.167969 8.398438 25.308594 L 10 24.511719 L 10 24.496094 C 10.003906 23.671875 10.675781 23 11.5 23 C 11.902344 23 12.28125 23.160156 12.566406 23.449219 L 14.1875 23.167969 C 14.515625 22.457031 15.226563 22 16 22 C 16.726563 22 17.398438 22.40625 17.75 23.0625 L 19.328125 23.304688 C 19.527344 23.109375 19.792969 23 20.070313 23 C 20.65625 23 21.136719 23.480469 21.136719 24.066406 C 21.136719 24.183594 21.113281 24.300781 21.066406 24.429688 L 22.671875 25.519531 C 22.9375 25.28125 23.382813 25 24 25 C 25.101563 25 26 25.898438 26 27 L 28 27 C 28 24.792969 26.207031 23 24 23 C 23.65625 23 23.316406 23.046875 22.992188 23.132813 C 22.59375 21.894531 21.433594 21 20.070313 21 C 19.652344 21 19.253906 21.082031 18.878906 21.238281 C 18.367188 20.703125 17.714844 20.332031 17 20.144531 L 17 19 L 17.003906 19 L 17.003906 18.671875 C 17.003906 14.519531 23.535156 12.53125 23.601563 12.511719 L 23.039063 10.59375 C 22.9375 10.621094 22.121094 10.871094 21.046875 11.363281 C 21.125 10.949219 21.339844 10.5625 21.703125 10.289063 C 22.761719 9.484375 24.558594 9.636719 26.617188 10.675781 C 26.214844 11.332031 25.589844 12.273438 24.851563 13.167969 C 24.300781 13.835938 23.757813 14.003906 23.398438 14.023438 Z M 13.484375 10.820313 L 13.496094 10.976563 C 13.445313 10.9375 13.390625 10.898438 13.339844 10.855469 C 13.386719 10.84375 13.429688 10.824219 13.484375 10.820313 Z"/>
    </symbol>
    <symbol id="flask" viewBox="0 0 32 32">
        <path d="M 17 0 C 16.449219 0 16 0.449219 16 1 C 16 1.550781 16.449219 2 17 2 C 17.550781 2 18 1.550781 18 1 C 18 0.449219 17.550781 0 17 0 Z M 14 3 C 13.449219 3 13 3.449219 13 4 L 10 4 L 10 6 L 11 6 L 11 13.65625 L 4.84375 21.59375 C 4.300781 22.292969 4 23.148438 4 24.03125 C 4 26.214844 5.785156 28 7.96875 28 L 24.03125 28 C 26.214844 28 28 26.214844 28 24.03125 C 28 23.148438 27.699219 22.292969 27.15625 21.59375 L 21 13.65625 L 21 6 L 22 6 L 22 4 L 15 4 C 15 3.449219 14.550781 3 14 3 Z M 13 6 L 19 6 L 19 14.34375 L 21.84375 18 L 10.15625 18 L 13 14.34375 Z M 17 10 C 16.449219 10 16 10.449219 16 11 C 16 11.550781 16.449219 12 17 12 C 17.550781 12 18 11.550781 18 11 C 18 10.449219 17.550781 10 17 10 Z M 8.59375 20 L 23.40625 20 L 25.59375 22.8125 C 25.863281 23.160156 26 23.59375 26 24.03125 C 26 25.136719 25.136719 26 24.03125 26 L 7.96875 26 C 6.863281 26 6 25.136719 6 24.03125 C 6 23.59375 6.136719 23.160156 6.40625 22.8125 Z"/>
    </symbol>
    <symbol id="tools" viewBox="0 0 32 32">
        <path d="M 5.25 2.75 L 4.6875 3.28125 L 3.28125 4.6875 L 2.75 5.25 L 3.15625 5.90625 L 5.25 9.40625 L 5.53125 9.90625 L 8.46875 9.90625 L 12.46875 13.875 C 8.894531 17.464844 4.347656 22.027344 4.1875 22.1875 C 2.621094 23.753906 2.617188 26.320313 4.21875 27.8125 C 5.78125 29.355469 8.328125 29.394531 9.8125 27.8125 C 9.824219 27.800781 9.832031 27.792969 9.84375 27.78125 L 16 21.59375 L 22.1875 27.8125 L 22.28125 27.875 C 23.851563 29.355469 26.347656 29.375 27.8125 27.8125 L 27.8125 27.78125 L 27.84375 27.78125 C 29.375 26.214844 29.390625 23.667969 27.8125 22.1875 L 27.78125 22.15625 L 22.5625 16.96875 C 26.074219 16.640625 28.824219 13.675781 28.875 10.09375 L 28.90625 10.09375 C 28.910156 10.074219 28.90625 10.050781 28.90625 10.03125 C 28.90625 10.019531 28.90625 10.011719 28.90625 10 C 29.003906 8.84375 28.753906 7.738281 28.15625 6.78125 L 27.46875 5.71875 L 22.8125 10.375 L 21.40625 8.90625 L 26.15625 4.15625 L 24.78125 3.59375 C 23.976563 3.25 23.046875 3 22 3 C 18.15625 3 15 6.15625 15 10 C 15 10.417969 15.089844 10.78125 15.15625 11.15625 C 14.71875 11.59375 14.390625 11.953125 13.875 12.46875 L 9.90625 8.5 L 9.90625 5.53125 L 9.40625 5.25 L 5.90625 3.15625 Z M 22 5 C 22.140625 5 22.238281 5.082031 22.375 5.09375 L 18.59375 8.875 L 19.28125 9.59375 L 22.09375 12.5 L 22.78125 13.21875 L 26.75 9.25 C 26.769531 9.480469 26.933594 9.648438 26.90625 9.90625 L 26.90625 10 C 26.90625 12.753906 24.660156 15 21.90625 15 C 21.539063 15 21.09375 14.914063 20.59375 14.8125 L 20.0625 14.71875 L 19.6875 15.09375 L 8.40625 26.40625 L 8.375 26.40625 L 8.375 26.4375 C 7.664063 27.214844 6.421875 27.234375 5.59375 26.40625 L 5.59375 26.375 L 5.5625 26.375 C 4.785156 25.664063 4.765625 24.421875 5.59375 23.59375 C 5.972656 23.214844 13.3125 15.8125 16.90625 12.21875 L 17.3125 11.8125 L 17.15625 11.25 C 17.074219 10.925781 17 10.367188 17 10 C 17 7.246094 19.246094 5 22 5 Z M 5.5625 5.25 L 7.90625 6.6875 L 7.90625 7.6875 L 7.6875 7.90625 L 6.6875 7.90625 L 5.25 5.5625 Z M 20.1875 17.40625 L 26.40625 23.59375 L 26.40625 23.625 L 26.4375 23.625 C 27.214844 24.335938 27.234375 25.578125 26.40625 26.40625 L 26.375 26.40625 L 26.375 26.4375 C 25.664063 27.214844 24.421875 27.234375 23.59375 26.40625 L 17.40625 20.1875 Z"/>
    </symbol>
    <symbol id="angle-down" viewBox="0 0 32 32">
        <path d="M 4.21875 10.78125 L 2.78125 12.21875 L 15.28125 24.71875 L 16 25.40625 L 16.71875 24.71875 L 29.21875 12.21875 L 27.78125 10.78125 L 16 22.5625 Z"/>
    </symbol>
    <symbol id="angle-up" viewBox="0 0 32 32">
        <path d="M 16 6.59375 L 15.28125 7.28125 L 2.78125 19.78125 L 4.21875 21.21875 L 16 9.4375 L 27.78125 21.21875 L 29.21875 19.78125 L 16.71875 7.28125 Z"/>
    </symbol>
    <symbol id="rocket" viewBox="0 0 32 32">
        <path d="M 25.90625 4 C 25.210938 4 24.242188 4.03125 23.21875 4.125 C 21.171875 4.316406 18.808594 4.660156 17.34375 6.125 C 16.113281 7.355469 13.570313 10.621094 11.21875 13.6875 C 10.753906 14.292969 10.773438 14.28125 10.34375 14.84375 L 8.625 14.75 C 7.347656 14.683594 6.117188 15.222656 5.3125 16.21875 L 3.21875 18.78125 L 2.1875 20.09375 L 3.8125 20.40625 L 7.09375 21.0625 L 10.9375 24.90625 L 11.59375 28.1875 L 11.9375 29.8125 L 13.21875 28.78125 L 15.78125 26.6875 C 16.777344 25.882813 17.316406 24.652344 17.25 23.375 L 17.15625 21.6875 C 17.738281 21.246094 17.71875 21.257813 18.34375 20.78125 C 21.417969 18.425781 24.695313 15.898438 25.90625 14.6875 C 27.359375 13.234375 27.683594 10.835938 27.875 8.78125 C 28.066406 6.726563 27.96875 4.96875 27.96875 4.96875 L 27.9375 4.0625 L 27.03125 4.03125 C 27.03125 4.03125 26.601563 4 25.90625 4 Z M 25 6 C 25.398438 6 25.679688 6.023438 25.96875 6.03125 C 25.980469 6.613281 26.003906 7.21875 25.875 8.59375 C 25.699219 10.488281 25.121094 12.597656 24.46875 13.25 C 23.578125 14.140625 20.1875 16.839844 17.125 19.1875 C 14.417969 21.261719 12.511719 22.71875 11.96875 23.125 L 8.90625 20.0625 C 9.316406 19.511719 10.71875 17.597656 12.78125 14.90625 C 15.125 11.851563 17.832031 8.449219 18.75 7.53125 C 19.433594 6.847656 21.519531 6.269531 23.40625 6.09375 C 24.089844 6.03125 24.601563 6 25 6 Z M 20.4375 9.53125 C 19.320313 9.53125 18.4375 10.445313 18.4375 11.5625 C 18.4375 12.679688 19.320313 13.59375 20.4375 13.59375 C 21.554688 13.59375 22.46875 12.679688 22.46875 11.5625 C 22.46875 10.445313 21.554688 9.53125 20.4375 9.53125 Z M 8.5 16.75 L 8.875 16.78125 C 8.273438 17.578125 7.289063 18.855469 7.15625 19.03125 L 5.8125 18.75 L 6.84375 17.5 C 7.246094 17.003906 7.859375 16.714844 8.5 16.75 Z M 6.21875 21.9375 C 5.363281 22.792969 4.875 23.976563 4.53125 24.96875 C 4.1875 25.960938 4.03125 26.78125 4.03125 26.78125 L 3.71875 28.25 L 5.1875 27.96875 C 5.1875 27.96875 5.984375 27.832031 6.96875 27.5 C 7.953125 27.167969 9.136719 26.675781 10.03125 25.78125 L 8.625 24.375 C 8.179688 24.820313 7.296875 25.210938 6.5 25.5 C 6.804688 24.667969 7.25 23.722656 7.625 23.34375 Z M 15.21875 23.125 L 15.25 23.5 C 15.285156 24.140625 15.03125 24.753906 14.53125 25.15625 L 13.25 26.1875 L 12.96875 24.84375 C 13.144531 24.714844 14.421875 23.722656 15.21875 23.125 Z"/>
    </symbol>
    <symbol id="money-bill-wave" viewBox="0 0 32 32">
        <path d="M 22.853516 6.0078125 C 20.164121 6.0816133 18.078828 6.8123281 16.048828 7.5175781 C 13.877828 8.2715781 11.828234 8.9827188 8.9902344 9.0117188 C 7.0932344 9.0417187 5.1931719 8.7143594 3.3261719 8.0683594 L 2 7.609375 L 2 24.691406 L 2.6660156 24.927734 C 4.4050156 25.542734 6.183125 25.897422 7.953125 25.982422 C 8.234125 25.995422 8.5092969 26.001953 8.7792969 26.001953 C 11.792297 26.001953 14.098938 25.202687 16.335938 24.429688 C 18.693937 23.613688 20.918125 22.843328 23.953125 22.986328 C 25.527125 23.061328 27.112016 23.379687 28.666016 23.929688 L 30 24.402344 L 30 7.3144531 L 29.341797 7.0742188 C 27.616797 6.4492188 25.834922 6.0945781 24.044922 6.0175781 C 23.634422 5.9993281 23.237715 5.9972695 22.853516 6.0078125 z M 22.908203 7.9941406 C 23.247131 7.9836484 23.595781 7.9837969 23.957031 7.9980469 C 24.330995 8.0142703 24.705197 8.0481553 25.078125 8.0917969 C 25.344924 9.1855072 26.323979 10 27.5 10 C 27.671 10 27.838 9.9812188 28 9.9492188 L 28 19.050781 C 27.838 19.018781 27.671 19 27.5 19 C 26.264201 19 25.245058 19.898153 25.042969 21.076172 C 24.710892 21.041393 24.378543 21.017795 24.046875 21.001953 C 20.631875 20.851953 18.113688 21.710687 15.679688 22.554688 C 13.318688 23.372687 11.081828 24.145953 8.0488281 24.001953 C 7.6729998 23.983858 7.2965195 23.94781 6.9199219 23.902344 C 6.650967 22.811694 5.67385 22 4.5 22 C 4.329 22 4.162 22.018781 4 22.050781 L 4 12.949219 C 4.162 12.981219 4.329 13 4.5 13 C 5.7444763 13 6.7671584 12.088686 6.9589844 10.898438 C 7.6438975 10.970039 8.3294829 11.011452 9.0117188 11 C 12.176719 10.968 14.478078 10.166578 16.705078 9.3925781 C 18.665953 8.7100781 20.535709 8.0675859 22.908203 7.9941406 z M 16 11 C 13.794 11 12 13.243 12 16 C 12 18.757 13.794 21 16 21 C 18.206 21 20 18.757 20 16 C 20 13.243 18.206 11 16 11 z M 16 13 C 17.084 13 18 14.374 18 16 C 18 17.626 17.084 19 16 19 C 14.916 19 14 17.626 14 16 C 14 14.374 14.916 13 16 13 z M 23.5 13 A 1.5 1.5 0 0 0 23.5 16 A 1.5 1.5 0 0 0 23.5 13 z M 8.5 16 A 1.5 1.5 0 0 0 8.5 19 A 1.5 1.5 0 0 0 8.5 16 z"/>
    </symbol>
    <symbol id="robot" viewBox="0 0 32 32">
        <path d="M 16 1 C 14.894531 1 14 1.894531 14 3 C 14 3.738281 14.402344 4.371094 15 4.71875 L 15 7 L 10 7 C 7.25 7 5 9.25 5 12 L 5 14 L 2 14 L 2 22 L 5 22 L 5 27 L 27 27 L 27 22 L 30 22 L 30 14 L 27 14 L 27 12 C 27 9.25 24.75 7 22 7 L 17 7 L 17 4.71875 C 17.597656 4.371094 18 3.738281 18 3 C 18 1.894531 17.105469 1 16 1 Z M 10 9 L 22 9 C 23.667969 9 25 10.332031 25 12 L 25 25 L 23 25 L 23 20 L 9 20 L 9 25 L 7 25 L 7 12 C 7 10.332031 8.332031 9 10 9 Z M 12 13 C 10.894531 13 10 13.894531 10 15 C 10 16.105469 10.894531 17 12 17 C 13.105469 17 14 16.105469 14 15 C 14 13.894531 13.105469 13 12 13 Z M 20 13 C 18.894531 13 18 13.894531 18 15 C 18 16.105469 18.894531 17 20 17 C 21.105469 17 22 16.105469 22 15 C 22 13.894531 21.105469 13 20 13 Z M 4 16 L 5 16 L 5 20 L 4 20 Z M 27 16 L 28 16 L 28 20 L 27 20 Z M 11 22 L 13 22 L 13 25 L 11 25 Z M 15 22 L 17 22 L 17 25 L 15 25 Z M 19 22 L 21 22 L 21 25 L 19 25 Z"/>
    </symbol>
    <symbol id="camera" viewBox="0 0 32 32">
        <path d="M 11.5 6 L 11.1875 6.40625 L 10 8 L 3 8 L 3 26 L 29 26 L 29 8 L 22 8 L 20.8125 6.40625 L 20.5 6 Z M 12.5 8 L 19.5 8 L 20.6875 9.59375 L 21 10 L 27 10 L 27 24 L 5 24 L 5 10 L 11 10 L 11.3125 9.59375 Z M 8 11 C 7.449219 11 7 11.449219 7 12 C 7 12.550781 7.449219 13 8 13 C 8.550781 13 9 12.550781 9 12 C 9 11.449219 8.550781 11 8 11 Z M 16 11 C 12.699219 11 10 13.699219 10 17 C 10 20.300781 12.699219 23 16 23 C 19.300781 23 22 20.300781 22 17 C 22 13.699219 19.300781 11 16 11 Z M 16 13 C 18.222656 13 20 14.777344 20 17 C 20 19.222656 18.222656 21 16 21 C 13.777344 21 12 19.222656 12 17 C 12 14.777344 13.777344 13 16 13 Z"/>
    </symbol>
    <symbol id="twitter" viewBox="0 0 32 32">
        <path d="M 28 8.558594 C 27.117188 8.949219 26.167969 9.214844 25.171875 9.332031 C 26.1875 8.722656 26.96875 7.757813 27.335938 6.609375 C 26.386719 7.171875 25.332031 7.582031 24.210938 7.804688 C 23.3125 6.847656 22.03125 6.246094 20.617188 6.246094 C 17.898438 6.246094 15.691406 8.453125 15.691406 11.171875 C 15.691406 11.558594 15.734375 11.933594 15.820313 12.292969 C 11.726563 12.089844 8.097656 10.128906 5.671875 7.148438 C 5.246094 7.875 5.003906 8.722656 5.003906 9.625 C 5.003906 11.332031 5.871094 12.839844 7.195313 13.722656 C 6.386719 13.695313 5.628906 13.476563 4.964844 13.105469 C 4.964844 13.128906 4.964844 13.148438 4.964844 13.167969 C 4.964844 15.554688 6.660156 17.546875 8.914063 17.996094 C 8.5 18.109375 8.066406 18.171875 7.617188 18.171875 C 7.300781 18.171875 6.988281 18.140625 6.691406 18.082031 C 7.316406 20.039063 9.136719 21.460938 11.289063 21.503906 C 9.605469 22.824219 7.480469 23.609375 5.175781 23.609375 C 4.777344 23.609375 4.386719 23.585938 4 23.539063 C 6.179688 24.9375 8.765625 25.753906 11.546875 25.753906 C 20.605469 25.753906 25.558594 18.25 25.558594 11.742188 C 25.558594 11.53125 25.550781 11.316406 25.542969 11.105469 C 26.503906 10.410156 27.339844 9.542969 28 8.558594 Z"/>
    </symbol>
    <symbol id="envelope" viewBox="0 0 32 32">
        <path d="M 3 8 L 3 26 L 29 26 L 29 8 Z M 7.3125 10 L 24.6875 10 L 16 15.78125 Z M 5 10.875 L 15.4375 17.84375 L 16 18.1875 L 16.5625 17.84375 L 27 10.875 L 27 24 L 5 24 Z"/>
    </symbol>
</svg>